<?xml version="1.0" standalone="no"?>
<!DOCTYPE svg PUBLIC "-//W3C//DTD SVG 20010904//EN"
 "http://www.w3.org/TR/2001/REC-SVG-20010904/DTD/svg10.dtd">
<svg version="1.0" xmlns="http://www.w3.org/2000/svg"
 width="1248.000000pt" height="832.000000pt" viewBox="0 0 1248.000000 832.000000"
 preserveAspectRatio="xMidYMid meet">

<g transform="translate(0.000000,832.000000) scale(0.100000,-0.100000)"
fill="#000000" stroke="none">
<path d="M3900 5755 l0 -1185 41 0 c72 0 77 -5 162 -210 49 -117 106 -237 107
-225 1 6 2 561 3 1235 1 674 6 1231 10 1238 6 9 238 12 1103 12 l1094 0 0
-640 0 -640 638 -2 637 -3 5 -378 5 -379 173 -5 172 -5 0 504 0 505 -598 589
c-328 324 -640 631 -693 682 l-95 92 -1382 0 -1382 0 0 -1185z m3225 265 c190
-189 345 -348 345 -352 0 -4 -160 -8 -355 -8 l-355 0 0 356 c0 239 3 355 10
352 6 -2 166 -158 355 -348z"/>
<path d="M4870 4611 c0 -47 2 -52 18 -46 36 14 224 18 314 5 141 -19 255 -66
353 -145 l55 -45 0 69 c0 59 4 74 24 98 l24 28 154 3 c84 2 190 1 235 -3 103
-8 133 -32 133 -102 l0 -44 53 40 c110 82 173 101 368 108 214 8 332 -19 412
-95 l27 -26 0 25 c0 13 9 39 21 58 14 23 19 46 17 79 l-3 45 -1102 1 -1103 1
0 -54z"/>
<path d="M4467 4483 c-3 -5 -39 -100 -80 -213 -105 -286 -147 -394 -155 -402
-6 -5 -225 476 -264 580 l-12 32 -198 0 -197 0 30 -67 c17 -38 49 -108 71
-158 22 -49 46 -103 53 -120 29 -65 183 -411 206 -462 l14 -33 152 0 151 0 15
43 c8 23 79 210 156 414 78 205 141 377 141 383 0 11 -77 14 -83 3z"/>
<path d="M4885 4476 c-185 -43 -304 -127 -364 -255 -23 -49 -26 -68 -26 -161
0 -99 2 -110 33 -172 55 -112 161 -191 306 -228 284 -72 591 -2 717 165 60 80
82 152 76 256 -10 189 -117 311 -332 379 -90 29 -317 37 -410 16z m228 -76
c46 -37 52 -74 52 -340 0 -241 0 -246 -25 -295 -17 -34 -34 -53 -52 -59 -46
-16 -80 3 -108 59 -24 48 -25 59 -28 266 -4 250 5 317 48 361 34 34 76 37 113
8z"/>
<path d="M5044 3874 c3 -9 6 -27 6 -40 0 -13 5 -24 10 -24 6 0 10 18 10 40 0
30 -4 40 -16 40 -11 0 -14 -5 -10 -16z"/>
<path d="M5707 4484 c-4 -4 -7 -196 -7 -426 l0 -418 195 0 195 0 0 420 0 420
-167 0 c-93 0 -177 3 -188 6 -11 3 -24 2 -28 -2z"/>
<path d="M6450 4477 c-162 -38 -255 -142 -282 -320 -35 -232 70 -441 250 -497
41 -13 109 -23 177 -27 202 -10 324 26 392 117 35 48 67 123 78 183 7 37 7 37
-29 37 -33 0 -36 -2 -46 -42 -36 -142 -100 -210 -202 -211 -62 -1 -95 22 -130
93 -85 170 -53 494 55 574 41 30 121 29 166 -3 45 -32 88 -102 102 -167 12
-52 13 -54 46 -54 28 0 33 3 30 18 -3 9 -8 35 -12 56 -16 95 -87 191 -167 227
-47 21 -70 23 -213 26 -103 1 -180 -2 -215 -10z"/>
<path d="M7134 4475 c-1 -5 -2 -194 -1 -420 l2 -410 438 -3 437 -2 0 35 0 35
-225 0 -225 0 0 160 0 160 110 0 110 0 0 35 0 35 -110 0 -111 0 3 158 3 157
225 5 225 5 3 28 3 27 -143 2 c-353 6 -741 3 -744 -7z"/>
<path d="M8293 4482 l-203 -2 0 -420 0 -420 440 0 440 0 0 35 0 35 -230 0
-230 0 0 384 c0 212 -3 386 -7 388 -5 2 -99 2 -210 0z"/>
<path d="M9610 4483 c-13 -3 -159 -289 -168 -329 -2 -8 -7 -14 -10 -14 -4 0
-46 76 -92 170 l-85 169 -237 1 -237 0 71 -122 c38 -68 97 -168 129 -224 l59
-100 0 -197 0 -197 210 0 210 0 0 189 0 189 110 226 c61 124 110 229 110 235
0 9 -37 11 -70 4z"/>
<path d="M2260 4060 l0 -420 195 0 195 0 0 420 0 420 -195 0 -195 0 0 -420z"/>
<path d="M2730 4060 l0 -420 35 0 35 0 2 281 3 280 209 -280 209 -281 144 0
143 0 0 420 0 420 -35 0 -35 0 -2 -211 -3 -212 -175 211 -175 211 -177 1 -178
0 0 -420z"/>
<path d="M7700 4261 l0 -69 62 -4 c83 -6 108 -33 108 -118 0 -101 -27 -130
-120 -130 l-50 0 0 -70 0 -70 150 0 150 0 0 265 0 265 -150 0 -150 0 0 -69z"/>
<path d="M6720 3884 c0 -3 7 -21 16 -40 30 -62 103 -54 131 14 l13 32 -80 0
c-44 0 -80 -3 -80 -6z"/>
<path d="M5591 3727 c-39 -48 -190 -128 -291 -156 -26 -7 15 -9 154 -10 l188
-1 -15 24 c-10 14 -17 52 -19 92 -3 59 -5 65 -17 51z"/>
<path d="M6180 3658 c0 -32 -6 -62 -16 -76 l-15 -22 133 0 133 1 -50 22 c-74
33 -94 45 -141 89 l-44 41 0 -55z"/>
<path d="M7005 3636 c-16 -16 -52 -39 -80 -52 l-50 -23 98 0 c53 -1 97 0 97 2
-1 1 -8 25 -18 52 l-17 50 -30 -29z"/>
<path d="M3900 2623 l0 -928 253 -253 254 -254 261 264 261 263 263 -263 263
-262 262 262 263 263 262 -262 261 -262 259 261 c142 143 262 258 266 254 4
-3 123 -122 265 -264 l258 -257 249 254 250 253 0 927 0 926 -172 -2 -173 -2
-3 -863 -2 -863 -82 -82 -83 -83 -262 262 -261 261 -261 -264 -260 -264 -263
262 -263 263 -263 -263 -263 -262 -259 264 -259 264 -263 -261 -263 -262 -90
90 -90 90 -3 858 -3 857 -154 3 -155 3 0 -928z"/>
<path d="M4870 2944 l0 -164 1105 0 1105 0 -2 163 -3 162 -1102 1 -1103 2 0
-164z"/>
</g>
</svg>
